<?xml version="1.0" encoding="UTF-8" standalone="no"?>
<!DOCTYPE svg PUBLIC "-//W3C//DTD SVG 1.1//EN" "http://www.w3.org/Graphics/SVG/1.1/DTD/svg11.dtd">
<svg width="100%" height="100%" viewBox="0 0 511 106" version="1.1" xmlns="http://www.w3.org/2000/svg" xmlns:xlink="http://www.w3.org/1999/xlink" xml:space="preserve" xmlns:serif="http://www.serif.com/" style="fill-rule:evenodd;clip-rule:evenodd;stroke-linejoin:round;stroke-miterlimit:2;">
    <g id="ページ2" transform="matrix(0.857732,0,0,0.12494,0,0)">
        <rect x="0" y="0" width="595.276" height="841.89" style="fill:none;"/>
        <g transform="matrix(4.85777,0,0,33.3493,142.242,384.488)">
            <path d="M0,-0.552C-0.317,-2.701 -1.354,-4.667 -2.906,-6.287C-2.915,-6.295 -2.924,-6.299 -2.938,-6.301C-3.896,-6.452 -5.212,-6.396 -6.87,-5.873C-9.392,-5.077 -11.981,-2.443 -13.399,0.552C-13.435,0.628 -13.504,0.685 -13.598,0.66C-13.69,0.636 -13.723,0.555 -13.716,0.479C-13.323,-4.006 -11.939,-7.634 -8.641,-9.733C-8.64,-9.734 -8.639,-9.734 -8.639,-9.735C-8.574,-9.776 -8.587,-9.836 -8.655,-9.86C-10.314,-10.42 -12.131,-10.729 -14.037,-10.729C-15.943,-10.729 -17.76,-10.42 -19.419,-9.86C-19.487,-9.836 -19.5,-9.776 -19.436,-9.735C-19.436,-9.734 -19.435,-9.734 -19.434,-9.733C-16.136,-7.634 -14.751,-4.006 -14.359,0.479C-14.352,0.555 -14.385,0.636 -14.477,0.66C-14.57,0.685 -14.64,0.628 -14.676,0.552C-16.094,-2.443 -18.683,-5.077 -21.205,-5.873C-22.863,-6.396 -24.178,-6.452 -25.137,-6.301C-25.151,-6.299 -25.159,-6.295 -25.168,-6.287C-26.72,-4.667 -27.757,-2.701 -28.074,-0.552C-28.084,-0.482 -28.042,-0.45 -27.971,-0.479L-27.97,-0.48C-26.27,-1.209 -23.687,-2.028 -20.318,-1.457C-18.445,-1.14 -16.83,-0.261 -15.331,0.886C-15.281,0.932 -15.256,1.004 -15.298,1.076C-15.343,1.153 -15.423,1.164 -15.499,1.14C-18.338,0.182 -23.453,0.547 -27.453,4.461C-27.466,4.474 -27.467,4.483 -27.462,4.495C-26.54,6.777 -24.773,8.741 -22.466,10.146C-22.414,10.177 -22.375,10.147 -22.362,10.091C-21.48,5.199 -17.958,2.218 -14.037,2.218C-10.116,2.218 -6.594,5.199 -5.713,10.091C-5.7,10.147 -5.661,10.177 -5.608,10.146C-3.302,8.741 -1.535,6.777 -0.612,4.495C-0.608,4.483 -0.608,4.474 -0.621,4.461C-4.622,0.547 -9.737,0.182 -12.575,1.14C-12.651,1.164 -12.732,1.153 -12.777,1.076C-12.819,1.004 -12.794,0.932 -12.744,0.886C-11.245,-0.261 -9.629,-1.14 -7.756,-1.457C-4.388,-2.028 -1.804,-1.209 -0.104,-0.48C-0.104,-0.479 -0.104,-0.479 -0.103,-0.479C-0.033,-0.45 0.01,-0.482 0,-0.552" style="fill:rgb(202,168,43);fill-rule:nonzero;"/>
        </g>
        <g transform="matrix(4.85777,0,0,33.3493,79.7167,811.476)">
            <path d="M0,-9.585L-2.333,-9.585C-2.413,-9.583 -2.416,-9.537 -2.408,-9.468L-1.323,-0.2C-1.299,0 -1.034,0 -1.009,-0.2L0.076,-9.468C0.084,-9.537 0.081,-9.583 0,-9.585" style="fill:rgb(155,158,156);fill-rule:nonzero;"/>
        </g>
        <g transform="matrix(4.85777,0,0,33.3493,589.657,804.883)">
            <path d="M0,-4.646L-0.016,-4.634L-0.765,-2.125C-0.766,-2.121 -0.771,-2.121 -0.772,-2.125L-1.543,-4.635C-1.549,-4.639 -1.553,-4.642 -1.559,-4.646L-2.148,-4.646C-2.159,-4.646 -2.167,-4.635 -2.164,-4.625L-1.064,-1.281L-1.064,-1.271L-1.481,-0.022C-1.484,-0.012 -1.477,0 -1.465,0L-0.935,0C-0.929,-0.005 -0.925,-0.008 -0.919,-0.012L0.554,-4.625C0.557,-4.635 0.549,-4.646 0.538,-4.646L0,-4.646Z" style="fill:rgb(35,25,22);fill-rule:nonzero;"/>
        </g>
        <g transform="matrix(4.85777,0,0,33.3493,552.107,715.377)">
            <path d="M0,-0.487C-0.418,-0.694 -0.734,-0.834 -0.734,-1.168C-0.734,-1.442 -0.543,-1.629 -0.242,-1.629C0.11,-1.629 0.285,-1.455 0.322,-1.215C0.329,-1.148 0.335,-1.017 0.335,-1.017C0.336,-1.008 0.343,-1.001 0.353,-1.001L0.843,-1.001C0.852,-1.001 0.859,-1.008 0.858,-1.017C0.858,-1.017 0.852,-1.188 0.837,-1.268C0.749,-1.776 0.426,-1.996 -0.213,-1.996C-0.837,-1.996 -1.314,-1.722 -1.314,-1.121C-1.314,-0.541 -0.881,-0.374 -0.374,-0.127C0.052,0.08 0.294,0.2 0.294,0.607C0.294,0.934 0.103,1.128 -0.264,1.128C-0.646,1.128 -0.835,0.921 -0.864,0.601C-0.872,0.547 -0.872,0.43 -0.872,0.43C-0.872,0.421 -0.879,0.414 -0.888,0.414L-1.378,0.414C-1.388,0.414 -1.395,0.421 -1.395,0.43C-1.395,0.43 -1.395,0.587 -1.387,0.647C-1.336,1.221 -0.969,1.509 -0.279,1.509C0.433,1.509 0.881,1.195 0.881,0.521C0.881,-0.047 0.463,-0.26 0,-0.487" style="fill:rgb(35,25,22);fill-rule:nonzero;"/>
        </g>
        <g transform="matrix(4.85777,0,0,33.3493,470.284,765.844)">
            <path d="M0,-4.911C-0.01,-4.914 -0.02,-4.906 -0.02,-4.895L-0.02,-1.753C-0.02,-1.098 -0.094,-0.451 -0.96,-0.451C-1.812,-0.451 -1.892,-1.092 -1.892,-1.726L-1.892,-4.742C-1.892,-4.749 -1.897,-4.756 -1.904,-4.758L-2.489,-4.911C-2.499,-4.914 -2.509,-4.906 -2.509,-4.895L-2.509,-1.686C-2.509,-0.618 -2.149,0.003 -0.953,0.003C0.325,0.003 0.604,-0.698 0.604,-1.726L0.604,-4.742C0.604,-4.749 0.599,-4.756 0.592,-4.758L0,-4.911Z" style="fill:rgb(35,25,22);fill-rule:nonzero;"/>
        </g>
        <g transform="matrix(4.85777,0,0,33.3493,527.725,716.827)">
            <path d="M0,-0.574L-1.358,-0.574C-1.368,-0.574 -1.375,-0.582 -1.375,-0.591C-1.374,-0.738 -1.36,-0.873 -1.346,-1.008C-1.294,-1.382 -1.105,-1.662 -0.643,-1.662C-0.202,-1.662 -0.035,-1.348 0.001,-1.001C0.016,-0.86 0.016,-0.725 0.016,-0.59C0.016,-0.581 0.009,-0.574 0,-0.574M-0.656,-2.042C-1.918,-2.042 -1.97,-1.054 -1.97,-0.154C-1.97,0.727 -1.831,1.468 -0.7,1.468C0.195,1.468 0.506,1.035 0.54,0.358C0.541,0.349 0.533,0.34 0.523,0.34L0.024,0.34C0.016,0.34 0.009,0.347 0.008,0.356C-0.009,0.743 -0.156,1.081 -0.7,1.081C-1.235,1.081 -1.348,0.716 -1.37,0.259C-1.37,0.259 -1.375,0.191 -1.375,0.119C-1.375,0.059 -1.378,-0.094 -1.375,-0.197C-1.375,-0.205 -1.368,-0.214 -1.358,-0.214L0.547,-0.214C0.556,-0.214 0.563,-0.221 0.563,-0.23L0.563,-0.367C0.563,-1.181 0.534,-2.042 -0.656,-2.042" style="fill:rgb(35,25,22);fill-rule:nonzero;"/>
        </g>
        <g transform="matrix(4.85777,0,0,33.3493,485.64,762.736)">
            <path d="M0,-3.392C-0.47,-3.392 -0.8,-3.138 -0.962,-2.858L-0.962,-3.345C-0.962,-3.353 -0.968,-3.36 -0.976,-3.361L-1.487,-3.437C-1.497,-3.438 -1.505,-3.433 -1.505,-3.423L-1.505,0.029C-1.505,0.038 -1.498,0.046 -1.489,0.046L-0.941,0.046C-0.933,0.046 -0.925,0.038 -0.925,0.029L-0.925,-1.977C-0.925,-2.431 -0.72,-2.991 -0.176,-2.991C0.404,-2.991 0.396,-2.511 0.396,-2.103L0.396,0.029C0.396,0.038 0.403,0.046 0.413,0.046L0.96,0.046C0.969,0.046 0.976,0.038 0.976,0.029L0.976,-2.344C0.976,-2.978 0.713,-3.392 0,-3.392" style="fill:rgb(35,25,22);fill-rule:nonzero;"/>
        </g>
        <g transform="matrix(4.85777,0,0,33.3493,513.221,764.26)">
            <path d="M0,-3.364C-0.007,-3.364 -0.013,-3.36 -0.015,-3.353L-0.855,-0.678C-0.86,-0.663 -0.882,-0.663 -0.886,-0.679L-1.705,-3.353C-1.707,-3.36 -1.713,-3.364 -1.72,-3.364L-2.229,-3.364C-2.24,-3.364 -2.248,-3.354 -2.245,-3.343L-1.227,-0.011C-1.225,-0.005 -1.219,0 -1.211,0L-0.575,0C-0.567,0 -0.561,-0.005 -0.559,-0.011L0.466,-3.343C0.469,-3.354 0.461,-3.364 0.451,-3.364L0,-3.364Z" style="fill:rgb(35,25,22);fill-rule:nonzero;"/>
        </g>
        <g transform="matrix(4.85777,0,0,33.3493,573.084,649.458)">
            <path d="M0,2.594L0,0.412C0,0.403 0.007,0.396 0.016,0.396L0.644,0.396C0.653,0.396 0.661,0.388 0.661,0.379L0.661,0.107C0.661,0.098 0.653,0.091 0.644,0.091L0.016,0.091C0.007,0.091 0,0.084 0,0.074L0,-0.655C-0.004,-0.66 -0.006,-0.664 -0.01,-0.67L-0.558,-0.89C-0.568,-0.894 -0.58,-0.886 -0.58,-0.875L-0.58,0.074C-0.58,0.084 -0.587,0.091 -0.596,0.091L-1.114,0.091C-1.124,0.091 -1.131,0.098 -1.131,0.107L-1.131,0.379C-1.131,0.388 -1.124,0.396 -1.114,0.396L-0.596,0.396C-0.587,0.396 -0.58,0.403 -0.58,0.412L-0.58,2.654C-0.58,3.241 -0.44,3.488 0.257,3.488C0.392,3.488 0.533,3.476 0.668,3.457C0.674,3.45 0.677,3.447 0.683,3.44L0.683,3.041C0.587,3.054 0.499,3.068 0.418,3.068C0.103,3.068 0,2.974 0,2.594" style="fill:rgb(35,25,22);fill-rule:nonzero;"/>
        </g>
        <g transform="matrix(4.85777,0,0,33.3493,495.476,764.137)">
            <path d="M0,-3.497C-0.011,-3.5 -0.021,-3.492 -0.021,-3.481L-0.021,-0.013C-0.021,-0.004 -0.014,0.003 -0.004,0.003L0.543,0.003C0.552,0.003 0.559,-0.004 0.559,-0.013L0.559,-3.328C0.559,-3.335 0.554,-3.342 0.547,-3.344L0,-3.497Z" style="fill:rgb(35,25,22);fill-rule:nonzero;"/>
        </g>
        <g transform="matrix(-4.85777,0,0,33.3493,496.788,631.64)">
            <path d="M0.001,-0.648C0.18,-0.648 0.325,-0.503 0.325,-0.324C0.325,-0.145 0.18,0 0.001,0C-0.178,0 -0.324,-0.145 -0.324,-0.324C-0.324,-0.503 -0.178,-0.648 0.001,-0.648" style="fill:rgb(35,25,22);fill-rule:nonzero;"/>
        </g>
        <g transform="matrix(4.85777,0,0,33.3493,561.054,764.137)">
            <path d="M0,-3.497C-0.01,-3.5 -0.021,-3.492 -0.021,-3.481L-0.021,-0.013C-0.021,-0.004 -0.013,0.003 -0.004,0.003L0.543,0.003C0.552,0.003 0.56,-0.004 0.56,-0.013L0.56,-3.328C0.56,-3.335 0.555,-3.342 0.547,-3.344L0,-3.497Z" style="fill:rgb(35,25,22);fill-rule:nonzero;"/>
        </g>
        <g transform="matrix(-4.85777,0,0,33.3493,562.358,631.64)">
            <path d="M-0.001,-0.648C0.178,-0.648 0.324,-0.503 0.324,-0.324C0.324,-0.145 0.178,0 -0.001,0C-0.18,0 -0.325,-0.145 -0.325,-0.324C-0.325,-0.503 -0.18,-0.648 -0.001,-0.648" style="fill:rgb(35,25,22);fill-rule:nonzero;"/>
        </g>
        <g transform="matrix(4.85777,0,0,33.3493,542.508,763.83)">
            <path d="M0,-3.354C-0.413,-3.354 -0.733,-3.185 -0.931,-2.859C-0.934,-2.855 -0.938,-2.857 -0.938,-2.861L-0.938,-3.273C-0.938,-3.282 -0.944,-3.289 -0.953,-3.29L-1.471,-3.366C-1.48,-3.367 -1.489,-3.361 -1.489,-3.352L-1.489,-0.003C-1.489,0.005 -1.482,0.013 -1.473,0.013L-0.918,0.013C-0.909,0.013 -0.902,0.005 -0.902,-0.003L-0.902,-2.006C-0.902,-2.5 -0.645,-2.86 -0.065,-2.86L-0.057,-2.861L0.044,-2.861C0.053,-2.861 0.06,-2.868 0.06,-2.876L0.06,-3.339C0.06,-3.347 0.053,-3.354 0.044,-3.354L0,-3.354Z" style="fill:rgb(35,25,22);fill-rule:nonzero;"/>
        </g>
        <g transform="matrix(4.85777,0,0,33.3493,195.017,639.34)">
            <path d="M0,2.582C-0.11,3.029 -0.316,3.342 -0.874,3.342C-1.468,3.342 -1.681,3.042 -1.776,2.535C-1.85,2.155 -1.842,0.434 -1.776,0.073C-1.695,-0.407 -1.453,-0.76 -0.874,-0.76C-0.309,-0.76 -0.088,-0.454 0,-0.033C0.088,0.353 0.095,2.175 0,2.582M-0.874,-1.214C-1.424,-1.214 -1.842,-1.041 -2.077,-0.76C-2.451,-0.32 -2.44,0.24 -2.44,1.314C-2.44,2.342 -2.444,2.708 -2.26,3.089C-2.047,3.509 -1.681,3.796 -0.888,3.796C-0.088,3.796 0.293,3.489 0.506,3.049C0.697,2.648 0.693,2.195 0.693,1.308C0.693,0.253 0.697,-0.374 0.315,-0.794C0.081,-1.054 -0.25,-1.214 -0.874,-1.214" style="fill:rgb(35,25,22);fill-rule:nonzero;"/>
        </g>
        <g transform="matrix(4.85777,0,0,33.3493,209.525,715.377)">
            <path d="M0,-0.487C-0.418,-0.694 -0.734,-0.834 -0.734,-1.168C-0.734,-1.441 -0.543,-1.628 -0.242,-1.628C0.11,-1.628 0.284,-1.454 0.321,-1.214C0.328,-1.148 0.335,-1.017 0.335,-1.017C0.335,-1.008 0.343,-1.001 0.352,-1.001L0.842,-1.001C0.851,-1.001 0.858,-1.008 0.857,-1.017C0.857,-1.017 0.851,-1.188 0.836,-1.268C0.748,-1.775 0.425,-1.995 -0.213,-1.995C-0.837,-1.995 -1.314,-1.721 -1.314,-1.121C-1.314,-0.54 -0.881,-0.374 -0.375,-0.127C0.051,0.08 0.293,0.2 0.293,0.607C0.293,0.934 0.103,1.127 -0.265,1.127C-0.646,1.127 -0.835,0.921 -0.864,0.6C-0.872,0.547 -0.872,0.43 -0.872,0.43C-0.872,0.421 -0.879,0.413 -0.888,0.413L-1.378,0.413C-1.387,0.413 -1.395,0.421 -1.395,0.43C-1.395,0.43 -1.395,0.587 -1.387,0.647C-1.336,1.221 -0.969,1.508 -0.279,1.508C0.433,1.508 0.88,1.194 0.88,0.52C0.88,-0.047 0.462,-0.26 0,-0.487" style="fill:rgb(35,25,22);fill-rule:nonzero;"/>
        </g>
        <g transform="matrix(4.85777,0,0,33.3493,240.139,665.479)">
            <path d="M0,1.058L1.124,-0.374C1.132,-0.385 1.125,-0.4 1.111,-0.4L0.478,-0.4C0.473,-0.398 0.469,-0.396 0.465,-0.394L-0.58,1.002L-0.58,-1.732C-0.58,-1.74 -0.584,-1.746 -0.592,-1.748L-1.138,-1.901C-1.149,-1.904 -1.159,-1.896 -1.159,-1.885L-1.159,2.946C-1.159,2.954 -1.152,2.962 -1.143,2.962L-0.596,2.962C-0.587,2.962 -0.58,2.954 -0.58,2.946L-0.58,1.172L0.575,2.954C0.58,2.957 0.583,2.959 0.588,2.962L1.232,2.962C1.245,2.962 1.252,2.948 1.245,2.937L-0.001,1.077C0,1.07 0,1.065 0,1.058" style="fill:rgb(35,25,22);fill-rule:nonzero;"/>
        </g>
        <g transform="matrix(4.85777,0,0,33.3493,226.914,665.983)">
            <path d="M0,2.456C-0.001,2.508 -0.043,2.551 -0.095,2.551L-0.765,2.551C-1.148,2.551 -1.296,2.293 -1.296,1.965C-1.296,1.344 -0.767,1.285 -0.154,1.285L-0.004,1.285C-0.001,1.285 0,1.287 0,1.289L0,2.456ZM-0.551,-0.491C-1.031,-0.491 -1.42,-0.364 -1.618,-0.039C-1.666,0.039 -1.699,0.119 -1.718,0.243C-1.725,0.291 -1.728,0.381 -1.728,0.381L-1.728,0.394C-1.728,0.394 -1.729,0.395 -1.729,0.397L-1.728,0.397C-1.728,0.403 -1.729,0.409 -1.729,0.413L-1.729,0.414C-1.729,0.423 -1.721,0.43 -1.712,0.43L-1.165,0.43C-1.156,0.43 -1.149,0.423 -1.149,0.413C-1.149,0.413 -1.148,0.39 -1.146,0.37C-1.145,0.359 -1.142,0.351 -1.141,0.341C-1.132,0.28 -1.117,0.224 -1.091,0.175C-0.993,-0.017 -0.818,-0.111 -0.573,-0.111C0,-0.111 0.036,0.331 0.036,0.73L0.036,0.878C-0.904,0.884 -1.868,0.95 -1.868,2.011C-1.868,2.566 -1.575,2.947 -0.914,2.947L0.477,2.947C0.53,2.945 0.572,2.904 0.572,2.852L0.572,0.631C0.572,-0.124 0.329,-0.491 -0.551,-0.491" style="fill:rgb(35,25,22);fill-rule:nonzero;"/>
        </g>
        <g transform="matrix(4.85777,0,0,33.3493,257.801,665.983)">
            <path d="M0,2.456C-0.001,2.508 -0.043,2.551 -0.096,2.551L-0.766,2.551C-1.148,2.551 -1.297,2.293 -1.297,1.965C-1.297,1.344 -0.767,1.285 -0.155,1.285L-0.004,1.285C-0.001,1.285 0,1.287 0,1.289L0,2.456ZM-0.552,-0.491C-1.031,-0.491 -1.421,-0.364 -1.619,-0.039C-1.667,0.039 -1.7,0.119 -1.718,0.243C-1.726,0.291 -1.729,0.381 -1.729,0.381L-1.729,0.394C-1.729,0.394 -1.73,0.395 -1.73,0.397L-1.729,0.397C-1.729,0.403 -1.73,0.409 -1.73,0.413L-1.73,0.414C-1.73,0.423 -1.721,0.43 -1.712,0.43L-1.166,0.43C-1.157,0.43 -1.149,0.423 -1.149,0.413C-1.149,0.413 -1.148,0.39 -1.146,0.37C-1.145,0.359 -1.142,0.351 -1.141,0.341C-1.132,0.28 -1.118,0.224 -1.092,0.175C-0.994,-0.017 -0.819,-0.111 -0.573,-0.111C0,-0.111 0.036,0.331 0.036,0.73L0.036,0.878C-0.904,0.884 -1.869,0.95 -1.869,2.011C-1.869,2.566 -1.575,2.947 -0.914,2.947L0.476,2.947C0.53,2.945 0.572,2.904 0.572,2.852L0.572,0.631C0.572,-0.124 0.329,-0.491 -0.552,-0.491" style="fill:rgb(35,25,22);fill-rule:nonzero;"/>
        </g>
        <g transform="matrix(4.85777,0,0,33.3493,347.224,696.051)">
            <path d="M0,0.672C0,1.126 -0.043,1.686 -0.674,1.686C-1.342,1.686 -1.35,1.1 -1.35,0.652L-1.35,0.178C-1.35,-0.283 -1.371,-1.021 -0.653,-1.021C0.029,-1.021 0,-0.336 0,0.165L0,0.672ZM-0.639,-1.396C-1.794,-1.396 -1.931,-0.593 -1.931,0.362C-1.931,1.383 -1.816,2.068 -0.682,2.068C0.409,2.068 0.589,1.409 0.589,0.316C0.589,-0.692 0.502,-1.396 -0.639,-1.396" style="fill:rgb(35,25,22);fill-rule:nonzero;"/>
        </g>
        <g transform="matrix(4.85777,0,0,33.3493,379.179,696.051)">
            <path d="M0,0.672C0,1.126 -0.043,1.686 -0.675,1.686C-1.342,1.686 -1.35,1.1 -1.35,0.652L-1.35,0.178C-1.35,-0.283 -1.371,-1.021 -0.653,-1.021C0.029,-1.021 0,-0.336 0,0.165L0,0.672ZM-0.639,-1.396C-1.794,-1.396 -1.931,-0.593 -1.931,0.362C-1.931,1.383 -1.816,2.068 -0.682,2.068C0.409,2.068 0.589,1.409 0.589,0.316C0.589,-0.692 0.502,-1.396 -0.639,-1.396" style="fill:rgb(35,25,22);fill-rule:nonzero;"/>
        </g>
        <g transform="matrix(4.85777,0,0,33.3493,363.334,735.87)">
            <path d="M0,-0.522C0,-0.068 -0.043,0.492 -0.675,0.492C-1.343,0.492 -1.35,-0.094 -1.35,-0.542L-1.35,-1.016C-1.35,-1.477 -1.372,-2.215 -0.653,-2.215C0.028,-2.215 0,-1.53 0,-1.029L0,-0.522ZM-0.639,-2.59C-0.969,-2.59 -1.257,-2.506 -1.398,-2.4L-1.875,-2.545C-1.887,-2.547 -1.896,-2.541 -1.896,-2.531L-1.896,2.068L-1.373,2.068L-1.374,0.741C-1.201,0.827 -0.976,0.874 -0.682,0.874C0.409,0.874 0.588,0.215 0.588,-0.878C0.588,-1.886 0.502,-2.59 -0.639,-2.59" style="fill:rgb(35,25,22);fill-rule:nonzero;"/>
        </g>
        <g transform="matrix(4.85777,0,0,33.3493,302.164,716.827)">
            <path d="M0,-0.574C0,-0.727 0.015,-0.868 0.029,-1.008C0.081,-1.382 0.27,-1.662 0.732,-1.662C1.173,-1.662 1.34,-1.348 1.376,-1.001C1.391,-0.854 1.391,-0.714 1.391,-0.574L0,-0.574ZM0.719,-2.042C-0.543,-2.042 -0.595,-1.054 -0.595,-0.154C-0.595,0.727 -0.455,1.468 0.675,1.468C1.578,1.468 1.887,1.028 1.916,0.34L1.384,0.34C1.369,0.734 1.226,1.081 0.675,1.081C0.14,1.081 0.027,0.716 0.005,0.259C0.005,0.259 0.001,0.191 0,0.119C0,0.056 -0.003,-0.112 0,-0.213L0,-0.214L1.922,-0.214C1.931,-0.214 1.938,-0.221 1.938,-0.23L1.938,-0.367C1.938,-1.181 1.909,-2.042 0.719,-2.042" style="fill:rgb(35,25,22);fill-rule:nonzero;"/>
        </g>
        <g transform="matrix(4.85777,0,0,33.3493,407.828,649.292)">
            <path d="M0,2.599L0,0.401L0.661,0.401L0.661,0.096L0,0.096L0,-0.661L-0.58,-0.894L-0.58,0.096L-1.131,0.096L-1.131,0.401L-0.58,0.401L-0.58,2.659C-0.58,3.246 -0.44,3.493 0.257,3.493C0.396,3.493 0.543,3.48 0.683,3.46L0.683,3.046C0.587,3.059 0.499,3.073 0.418,3.073C0.103,3.073 0,2.979 0,2.599" style="fill:rgb(35,25,22);fill-rule:nonzero;"/>
        </g>
        <g transform="matrix(4.85777,0,0,33.3493,395.697,647.331)">
            <path d="M0,3.506L0.58,3.506L0.58,0.162L0,0L0,3.506Z" style="fill:rgb(35,25,22);fill-rule:nonzero;"/>
        </g>
        <g transform="matrix(-4.41262,-13.9462,-2.03144,30.2933,395.901,627.923)">
            <path d="M-0.137,-0.623C0.168,-0.61 0.299,-0.256 0.076,-0.049C0.019,0.003 -0.059,0.032 -0.136,0.03C-0.441,0.017 -0.572,-0.337 -0.349,-0.544C-0.291,-0.597 -0.214,-0.626 -0.137,-0.623" style="fill:rgb(35,25,22);fill-rule:nonzero;"/>
        </g>
        <g transform="matrix(0,33.3493,4.85777,0,399.952,673.403)">
            <path d="M-2.145,-2.725L2.725,-2.725L2.725,-2.145L-1.983,-2.145L-2.145,-2.725Z" style="fill:rgb(35,25,22);fill-rule:nonzero;"/>
        </g>
        <g transform="matrix(4.85777,0,0,33.3493,423.291,665.983)">
            <path d="M0,2.456C-0.001,2.508 -0.043,2.551 -0.095,2.551L-0.765,2.551C-1.148,2.551 -1.296,2.293 -1.296,1.965C-1.296,1.344 -0.767,1.285 -0.154,1.285L-0.004,1.285C-0.001,1.285 0,1.287 0,1.289L0,2.456ZM-0.552,-0.491C-1.031,-0.491 -1.421,-0.364 -1.619,-0.039C-1.666,0.039 -1.699,0.119 -1.718,0.243C-1.725,0.291 -1.728,0.381 -1.728,0.381L-1.728,0.394C-1.728,0.394 -1.729,0.395 -1.729,0.397L-1.728,0.397C-1.728,0.403 -1.729,0.409 -1.729,0.413L-1.729,0.414C-1.729,0.423 -1.721,0.43 -1.712,0.43L-1.165,0.43C-1.157,0.43 -1.149,0.423 -1.149,0.413C-1.149,0.413 -1.148,0.39 -1.146,0.37C-1.145,0.36 -1.142,0.351 -1.141,0.341C-1.132,0.28 -1.118,0.224 -1.091,0.175C-0.993,-0.017 -0.819,-0.111 -0.573,-0.111C0,-0.111 0.036,0.331 0.036,0.73L0.036,0.878C-0.904,0.884 -1.868,0.95 -1.868,2.011C-1.868,2.566 -1.575,2.947 -0.914,2.947L0.477,2.947C0.53,2.945 0.572,2.904 0.572,2.852L0.572,0.631C0.572,-0.124 0.329,-0.491 -0.552,-0.491" style="fill:rgb(35,25,22);fill-rule:nonzero;"/>
        </g>
        <g transform="matrix(4.85777,0,0,33.3493,437.963,762.686)">
            <path d="M0,-3.39C-0.47,-3.39 -0.8,-3.136 -0.962,-2.856L-0.962,-3.357L-1.486,-3.435C-1.496,-3.437 -1.505,-3.431 -1.505,-3.421L-1.505,0.047L-0.925,0.047L-0.925,-1.975C-0.925,-2.429 -0.719,-2.99 -0.176,-2.99C0.404,-2.99 0.396,-2.509 0.396,-2.102L0.396,0.047L0.976,0.047L0.976,-2.342C0.976,-2.976 0.713,-3.39 0,-3.39" style="fill:rgb(35,25,22);fill-rule:nonzero;"/>
        </g>
        <g transform="matrix(4.85777,0,0,33.3493,335.17,763.83)">
            <path d="M0,-3.354C-0.418,-3.354 -0.741,-3.18 -0.938,-2.847L-0.938,-3.287L-1.47,-3.366C-1.48,-3.367 -1.489,-3.361 -1.489,-3.351L-1.489,0.013L-0.902,0.013L-0.902,-2.006C-0.902,-2.5 -0.645,-2.86 -0.065,-2.86L0.044,-2.86C0.053,-2.86 0.06,-2.867 0.06,-2.876L0.06,-3.338C0.06,-3.347 0.053,-3.354 0.044,-3.354L0,-3.354Z" style="fill:rgb(35,25,22);fill-rule:nonzero;"/>
        </g>
        <g transform="matrix(4.85777,0,0,33.3493,291.592,764.284)">
            <path d="M0,-4.852C-0.006,-4.852 -0.012,-4.848 -0.015,-4.842L-1.263,-2.175C-1.265,-2.172 -1.269,-2.172 -1.271,-2.175L-2.521,-4.842C-2.523,-4.848 -2.529,-4.852 -2.535,-4.852L-3.199,-4.852C-3.208,-4.852 -3.216,-4.845 -3.216,-4.835L-3.216,-0.017C-3.216,-0.008 -3.208,0 -3.199,0L-2.666,0C-2.656,0 -2.649,-0.008 -2.649,-0.017L-2.647,-4.001C-2.647,-4.005 -2.642,-4.006 -2.64,-4.002L-1.53,-1.646C-1.527,-1.64 -1.521,-1.637 -1.515,-1.637L-1.02,-1.637C-1.014,-1.637 -1.008,-1.64 -1.005,-1.646L0.104,-4.005C0.106,-4.009 0.112,-4.008 0.112,-4.004L0.114,-0.017C0.114,-0.008 0.121,0 0.13,0L0.664,0C0.673,0 0.681,-0.008 0.681,-0.017L0.681,-4.835C0.681,-4.845 0.673,-4.852 0.664,-4.852L0,-4.852Z" style="fill:rgb(35,25,22);fill-rule:nonzero;"/>
        </g>
        <g transform="matrix(4.85777,0,0,33.3493,319.954,649.292)">
            <path d="M0,2.599L0,0.401L0.661,0.401L0.661,0.096L0,0.096L0,-0.661L-0.58,-0.894L-0.58,0.096L-1.131,0.096L-1.131,0.401L-0.58,0.401L-0.58,2.659C-0.58,3.246 -0.44,3.493 0.257,3.493C0.396,3.493 0.543,3.48 0.683,3.46L0.683,3.046C0.587,3.059 0.499,3.073 0.418,3.073C0.103,3.073 0,2.979 0,2.599" style="fill:rgb(35,25,22);fill-rule:nonzero;"/>
        </g>
        <g transform="matrix(4.85777,0,0,33.3493,592.164,390.107)">
            <path d="M0,-1.884L-4.981,-1.884L-4.981,-2.712L-2.455,-4.656C-2.444,-4.664 -2.438,-4.676 -2.438,-4.688L-2.438,-5.348C-2.438,-5.37 -2.457,-5.389 -2.479,-5.389L-8.877,-5.389C-8.9,-5.389 -8.918,-5.37 -8.918,-5.348L-8.918,-4.738C-8.918,-4.715 -8.9,-4.697 -8.877,-4.697L-4.27,-4.697L-5.257,-3.635L-6.334,-3.635C-6.357,-3.635 -6.375,-3.617 -6.375,-3.594L-6.375,-1.884L-11.356,-1.884C-11.379,-1.884 -11.397,-1.865 -11.397,-1.843L-11.397,-1.233C-11.397,-1.21 -11.379,-1.192 -11.356,-1.192L-6.375,-1.192L-6.375,2.079C-6.375,2.523 -6.739,2.813 -7.174,2.813L-8.027,2.813C-8.048,2.814 -8.065,2.832 -8.065,2.854L-8.065,3.465C-8.065,3.487 -8.047,3.505 -8.024,3.505L-6.572,3.505C-6.369,3.505 -6.17,3.467 -5.982,3.391C-5.856,3.34 -5.738,3.274 -5.63,3.194C-5.536,3.125 -5.449,3.044 -5.371,2.954C-5.31,2.884 -5.255,2.809 -5.208,2.732C-5.06,2.485 -4.981,2.202 -4.981,1.915L-4.981,-1.192L0,-1.192C0.022,-1.192 0.041,-1.21 0.041,-1.233L0.041,-1.843C0.041,-1.865 0.022,-1.884 0,-1.884" style="fill:rgb(35,25,22);fill-rule:nonzero;"/>
        </g>
        <g transform="matrix(4.85777,0,0,33.3493,544.5,72.5716)">
            <path d="M0,4.825C0.022,4.825 0.041,4.806 0.041,4.784L0.041,2.672L8.227,2.672L8.227,4.784C8.227,4.806 8.245,4.825 8.268,4.825L9.58,4.825C9.602,4.825 9.621,4.806 9.621,4.784L9.621,2.021C9.621,1.998 9.602,1.98 9.58,1.98L7.559,1.98L7.559,0.301C7.559,0.282 7.544,0.265 7.525,0.261L6.213,0.002C6.201,0 6.189,0.003 6.18,0.011C6.17,0.019 6.165,0.031 6.165,0.043L6.165,1.98L4.351,1.98L4.351,0.301C4.351,0.282 4.337,0.265 4.318,0.261L3.006,0.002C2.994,0 2.981,0.003 2.972,0.011C2.962,0.019 2.957,0.031 2.957,0.043L2.957,1.98L1.823,1.98L1.823,0.301C1.823,0.282 1.809,0.265 1.79,0.261L0.478,0.002C0.466,0 0.454,0.003 0.444,0.011C0.435,0.019 0.429,0.031 0.429,0.043L0.429,1.98L-1.312,1.98C-1.334,1.98 -1.353,1.998 -1.353,2.021L-1.353,4.784C-1.353,4.806 -1.334,4.825 -1.312,4.825L0,4.825Z" style="fill:rgb(35,25,22);fill-rule:nonzero;"/>
        </g>
        <g transform="matrix(4.85777,0,0,33.3493,238.439,70.9408)">
            <path d="M0,13.18C0.005,13.182 0.011,13.183 0.016,13.183C0.024,13.183 0.032,13.181 0.039,13.177C0.05,13.169 0.057,13.156 0.057,13.142L0.057,12.28C0.057,12.265 0.049,12.252 0.037,12.244C-1.333,11.459 -2.5,10.167 -3.529,8.294C-4.564,6.41 -4.852,4.256 -4.919,3.603L0.016,3.603C0.039,3.603 0.057,3.585 0.057,3.562L0.057,2.951C0.057,2.929 0.039,2.91 0.016,2.91L-4.964,2.91C-4.964,2.88 -4.965,2.85 -4.965,2.822L-4.965,0.244C-4.965,0.224 -4.979,0.207 -5,0.203L-6.312,-0.003C-6.323,-0.005 -6.335,-0.001 -6.344,0.007C-6.354,0.014 -6.359,0.026 -6.359,0.038L-6.359,2.91L-11.34,2.91C-11.362,2.91 -11.381,2.929 -11.381,2.951L-11.381,3.562C-11.381,3.585 -11.362,3.603 -11.34,3.603L-6.404,3.603C-6.472,4.256 -6.759,6.41 -7.794,8.294C-8.824,10.167 -9.99,11.459 -11.36,12.244C-11.373,12.252 -11.381,12.265 -11.381,12.28L-11.381,13.142C-11.381,13.156 -11.374,13.169 -11.362,13.177C-11.351,13.184 -11.336,13.185 -11.324,13.18C-8.866,12.113 -7.384,10.13 -6.573,8.656C-6.217,8.008 -5.911,7.319 -5.662,6.607C-5.413,7.319 -5.106,8.008 -4.75,8.656C-3.94,10.13 -2.458,12.113 0,13.18" style="fill:rgb(35,25,22);fill-rule:nonzero;"/>
        </g>
        <g transform="matrix(4.85777,0,0,33.3493,523.216,70.9408)">
            <path d="M0,13.18C0.005,13.182 0.011,13.183 0.017,13.183C0.024,13.183 0.032,13.181 0.039,13.177C0.051,13.169 0.058,13.156 0.058,13.142L0.058,12.28C0.058,12.265 0.05,12.252 0.037,12.244C-1.333,11.459 -2.5,10.167 -3.529,8.294C-4.564,6.41 -4.851,4.256 -4.919,3.603L0.017,3.603C0.039,3.603 0.058,3.585 0.058,3.562L0.058,2.951C0.058,2.929 0.039,2.91 0.017,2.91L-4.964,2.91C-4.964,2.88 -4.965,2.85 -4.965,2.822L-4.965,0.244C-4.965,0.224 -4.979,0.207 -5,0.203L-6.311,-0.003C-6.323,-0.005 -6.335,-0.001 -6.344,0.007C-6.354,0.014 -6.358,0.026 -6.358,0.038L-6.358,2.822C-6.358,2.85 -6.359,2.88 -6.359,2.91L-11.339,2.91C-11.362,2.91 -11.38,2.929 -11.38,2.951L-11.38,3.562C-11.38,3.585 -11.362,3.603 -11.339,3.603L-6.404,3.603C-6.472,4.256 -6.759,6.41 -7.794,8.294C-8.824,10.167 -9.99,11.459 -11.36,12.244C-11.373,12.252 -11.381,12.265 -11.381,12.28L-11.381,13.142C-11.381,13.156 -11.374,13.169 -11.362,13.177C-11.351,13.184 -11.336,13.185 -11.323,13.18C-8.866,12.113 -7.383,10.13 -6.573,8.656C-6.216,8.007 -5.91,7.319 -5.662,6.607C-5.413,7.319 -5.106,8.008 -4.75,8.656C-3.939,10.13 -2.458,12.113 0,13.18" style="fill:rgb(35,25,22);fill-rule:nonzero;"/>
        </g>
        <g transform="matrix(4.85777,0,0,33.3493,312.176,132.774)">
            <path d="M0,10.053C-0.517,9.648 -0.979,9.218 -1.375,8.775C-1.561,8.568 -1.738,8.341 -1.903,8.099C-0.833,6.503 -0.292,4.628 -0.292,2.525L-0.292,1.205C-0.292,1.182 -0.31,1.164 -0.333,1.164L-5.099,1.164L-5.099,-0.593L0.288,-0.593C0.31,-0.593 0.329,-0.611 0.329,-0.634L0.329,-1.244C0.329,-1.267 0.31,-1.285 0.288,-1.285L-6.452,-1.285C-6.474,-1.285 -6.493,-1.267 -6.493,-1.244L-6.493,2.901C-6.493,6.715 -6.607,8.117 -7.32,9.455C-7.449,9.698 -7.604,9.905 -7.782,10.072C-7.79,10.079 -7.795,10.09 -7.795,10.101L-7.795,10.985C-7.795,10.998 -7.789,11.01 -7.778,11.018C-7.768,11.026 -7.754,11.028 -7.742,11.024C-7.457,10.933 -7.184,10.769 -6.932,10.536C-6.26,9.916 -5.793,9.001 -5.503,7.738C-5.228,6.532 -5.099,4.995 -5.099,2.901L-5.099,1.856L-1.685,1.856L-1.685,2.525C-1.685,4.073 -2.003,5.612 -2.582,6.869C-3.278,5.292 -3.422,3.687 -3.422,2.78C-3.422,2.758 -3.44,2.739 -3.463,2.739L-4.775,2.739C-4.798,2.739 -4.816,2.758 -4.816,2.78C-4.816,3.419 -4.769,3.898 -4.66,4.532C-4.436,5.837 -3.974,7.035 -3.288,8.095C-3.435,8.303 -3.59,8.498 -3.751,8.678C-4.019,8.977 -4.32,9.275 -4.646,9.563C-4.733,9.64 -4.819,9.714 -4.903,9.784C-5.118,9.963 -5.341,10.137 -5.567,10.302C-5.578,10.309 -5.584,10.322 -5.584,10.335L-5.584,11.288C-5.584,11.299 -5.58,11.31 -5.571,11.318C-5.559,11.33 -5.539,11.333 -5.524,11.324L-5.511,11.318C-5.256,11.189 -5.014,11.043 -4.855,10.944C-4.766,10.887 -4.681,10.833 -4.596,10.775C-3.903,10.309 -3.281,9.773 -2.748,9.182C-2.699,9.128 -2.651,9.074 -2.604,9.019C-2.525,9.113 -2.452,9.199 -2.379,9.279C-1.551,10.197 -0.653,10.808 -0.046,11.16C0.063,11.223 0.169,11.281 0.269,11.333C0.275,11.336 0.281,11.338 0.288,11.338C0.295,11.338 0.303,11.336 0.309,11.332C0.321,11.324 0.329,11.311 0.329,11.297L0.329,10.323C0.329,10.309 0.322,10.297 0.312,10.289C0.207,10.212 0.102,10.133 0,10.053" style="fill:rgb(35,25,22);fill-rule:nonzero;"/>
        </g>
        <g transform="matrix(4.85777,0,0,33.3493,268.513,218.425)">
            <path d="M0,4.908C-0.217,5.06 -0.601,5.091 -0.887,5.098L-0.887,1.194L-0.818,1.263C-0.507,1.634 0.298,2.841 0.298,3.952C0.298,4.699 0.074,4.856 0,4.908M-0.887,-3.161L0.314,-3.161L-0.887,0.255L-0.887,-3.161ZM1.108,2.194C0.836,1.75 0.523,1.365 0.271,1.055C0.157,0.915 0.058,0.792 -0.015,0.692L1.748,-3.185C1.75,-3.191 1.751,-3.196 1.751,-3.202L1.751,-3.812C1.751,-3.835 1.733,-3.853 1.71,-3.853L-2.24,-3.853C-2.263,-3.853 -2.281,-3.835 -2.281,-3.812L-2.281,8.72C-2.281,8.742 -2.263,8.761 -2.24,8.761L-0.928,8.761C-0.905,8.761 -0.887,8.742 -0.887,8.72L-0.887,5.877C-0.362,5.887 0.517,5.903 1.099,5.431C1.493,5.112 1.692,4.615 1.692,3.952C1.692,3.41 1.501,2.835 1.108,2.194" style="fill:rgb(35,25,22);fill-rule:nonzero;"/>
        </g>
        <g transform="matrix(4.85777,0,0,33.3493,329.577,87.5654)">
            <path d="M0,5.642C0.008,5.642 0.016,5.64 0.022,5.636C0.288,5.465 0.549,5.276 0.797,5.075C0.844,5.037 0.89,4.999 0.936,4.961C2.314,3.795 3.32,2.214 3.924,0.26C3.928,0.248 3.926,0.236 3.92,0.226C3.914,0.216 3.903,0.209 3.892,0.207L2.598,0.004C2.578,0 2.558,0.013 2.552,0.033C1.948,2.116 1.08,3.684 -0.027,4.693C-0.036,4.701 -0.041,4.712 -0.041,4.724L-0.041,5.601C-0.041,5.616 -0.033,5.63 -0.02,5.637C-0.013,5.641 -0.006,5.642 0,5.642" style="fill:rgb(35,25,22);fill-rule:nonzero;"/>
        </g>
        <g transform="matrix(4.85777,0,0,33.3493,368.422,276.843)">
            <path d="M0,-5.686C-0.006,-5.702 -0.021,-5.711 -0.038,-5.711L-0.912,-5.711C-0.925,-5.711 -0.937,-5.706 -0.945,-5.695C-0.953,-5.686 -0.955,-5.672 -0.952,-5.66C-0.244,-3.077 1.007,-1.18 2.873,0.018C2.879,0.022 2.887,0.025 2.895,0.025C2.901,0.025 2.908,0.023 2.914,0.02C2.927,0.013 2.936,-0.001 2.936,-0.016L2.936,-1.804C2.936,-1.816 2.93,-1.828 2.92,-1.835C1.636,-2.878 0.572,-4.281 0,-5.686" style="fill:rgb(35,25,22);fill-rule:nonzero;"/>
        </g>
        <g transform="matrix(4.85777,0,0,33.3493,347.193,499.496)">
            <path d="M0,-7.274L-2.892,-1.191C-2.895,-1.185 -2.896,-1.179 -2.896,-1.173L-2.896,-0.018C-2.896,0.004 -2.877,0.023 -2.854,0.023L-2.632,0.023C-2.63,0.023 -2.628,0.023 -2.626,0.022L6.265,0.022C6.267,0.023 6.269,0.023 6.271,0.023L6.493,0.023C6.516,0.023 6.534,0.004 6.534,-0.018L6.534,-1.173C6.534,-1.179 6.533,-1.185 6.53,-1.191L5.035,-4.341C5.028,-4.355 5.013,-4.364 4.998,-4.364L3.545,-4.364C3.531,-4.364 3.518,-4.357 3.51,-4.345C3.503,-4.333 3.502,-4.318 3.508,-4.306L5.121,-0.91L-1.482,-0.91L1.527,-7.239C1.533,-7.252 1.532,-7.266 1.524,-7.278C1.517,-7.29 1.504,-7.297 1.49,-7.297L0.037,-7.297C0.021,-7.297 0.007,-7.288 0,-7.274" style="fill:rgb(35,25,22);fill-rule:nonzero;"/>
        </g>
        <g transform="matrix(4.85777,0,0,33.3493,452.14,70.704)">
            <path d="M0,3.607C0.023,3.607 0.041,3.588 0.041,3.566L0.041,2.956C0.041,2.933 0.023,2.915 0,2.915L-4.67,2.915L-4.67,0.248C-4.67,0.228 -4.685,0.211 -4.705,0.208L-6.017,0.002C-6.028,0 -6.041,0.003 -6.05,0.011C-6.059,0.019 -6.064,0.03 -6.064,0.042L-6.064,2.915L-10.735,2.915C-10.758,2.915 -10.776,2.933 -10.776,2.956L-10.776,3.566C-10.776,3.588 -10.758,3.607 -10.735,3.607L0,3.607Z" style="fill:rgb(35,25,22);fill-rule:nonzero;"/>
        </g>
        <g transform="matrix(4.85777,0,0,33.3493,439.441,236.1)">
            <path d="M0,7.295L1.056,-0.644C1.058,-0.657 1.054,-0.668 1.046,-0.678C1.039,-0.687 1.027,-0.692 1.015,-0.692L-0.313,-0.692C-0.333,-0.692 -0.351,-0.678 -0.354,-0.658L-1.412,7.295L-4.095,7.295L-5.152,-0.658C-5.156,-0.678 -5.173,-0.692 -5.193,-0.692L-6.521,-0.692C-6.534,-0.692 -6.545,-0.687 -6.553,-0.678C-6.561,-0.668 -6.564,-0.657 -6.562,-0.644L-5.506,7.295L-8.402,7.295C-8.425,7.295 -8.443,7.313 -8.443,7.336L-8.443,7.946C-8.443,7.969 -8.425,7.987 -8.402,7.987L2.953,7.987C2.976,7.987 2.994,7.969 2.994,7.946L2.994,7.336C2.994,7.313 2.976,7.295 2.953,7.295L0,7.295Z" style="fill:rgb(35,25,22);fill-rule:nonzero;"/>
        </g>
    </g>
</svg>
